P1
# Checkerboard pattern
16 16
1 0 1 0 0 1 1 0 0 1 0 1 0 1 0 1
0 1 0 1 1 0 0 1 1 0 1 0 1 0 1 0
1 0 1 0 0 1 1 0 0 1 0 1 0 1 0 1
0 1 0 1 1 0 0 1 1 0 1 0 1 0 1 0
1 0 1 0 0 1 1 0 0 1 0 1 0 1 0 1
0 1 0 1 1 0 0 1 1 0 1 0 1 0 1 0
1 0 1 0 0 1 1 0 0 1 0 1 0 1 0 1
0 1 0 1 1 0 0 1 1 0 1 0 1 0 1 0
1 0 1 0 0 1 1 0 0 1 0 1 0 1 0 1
0 1 0 1 1 0 0 1 1 0 1 0 1 0 1 0
1 0 1 0 0 1 1 0 0 1 0 1 0 1 0 1
0 1 0 1 1 0 0 1 1 0 1 0 1 0 1 0
1 0 1 0 0 1 1 0 0 1 0 1 0 1 0 1
0 1 0 1 1 0 0 1 1 0 1 0 1 0 1 0
1 0 1 0 0 1 1 0 0 1 0 1 0 1 0 1
0 1 0 1 1 0 0 1 1 0 1 0 1 0 1 0
